<svg width="800" height="520" viewBox="0 0 800 520" fill="none" xmlns="http://www.w3.org/2000/svg">
  <rect width="800" height="520" rx="36" fill="#0D1D2B"/>
  <ellipse cx="400" cy="260" rx="280" ry="180" fill="#213748"/>
  <ellipse cx="400" cy="260" rx="236" ry="148" fill="#E9EFF4"/>
  <ellipse cx="312" cy="266" rx="52" ry="34" fill="#FFB0B7" opacity="0.92"/>
  <ellipse cx="488" cy="266" rx="52" ry="34" fill="#FFB0B7" opacity="0.92"/>
  <ellipse cx="400" cy="260" rx="190" ry="110" fill="#D7E2EA" opacity="0.62"/>
  <path d="M256 160C296 138 343 124 400 124C456 124 504 138 544 160" stroke="#AFC1CF" stroke-width="16" stroke-linecap="round"/>
  <path d="M256 360C296 382 343 396 400 396C456 396 504 382 544 360" stroke="#AFC1CF" stroke-width="16" stroke-linecap="round"/>
  <circle cx="312" cy="266" r="17" fill="#D93B56"/>
  <circle cx="488" cy="266" r="17" fill="#D93B56"/>
  <text x="400" y="74" fill="#F6FBFF" font-family="Manrope, sans-serif" font-size="30" font-weight="700" text-anchor="middle">
    Mock coronal slice with hippocampal overlay
  </text>
  <text x="400" y="462" fill="#AFC1CF" font-family="Manrope, sans-serif" font-size="24" text-anchor="middle">
    Demonstration image for UI prototyping only. Not for clinical interpretation.
  </text>
</svg>
